<svg width="130" height="130" viewBox="0 0 130 130" fill="none" xmlns="http://www.w3.org/2000/svg">
<g clip-path="url(#clip0_52_174)">
<path d="M24.9091 100.945C29.6303 86.4364 38 74 38 74H92C92 74 100.37 86.4364 105.091 100.945C109.812 115.455 110 130 110 130H20C20 130 20.1879 115.455 24.9091 100.945Z" fill="white"/>
<path d="M20 130C20 130 20.1879 115.455 24.9091 100.945C29.6303 86.4364 38 74 38 74H92C92 74 100.37 86.4364 105.091 100.945C109.812 115.455 110 130 110 130" stroke="#7D8793" stroke-width="1.5"/>
<path d="M101.991 12.5257C95.4654 7.63142 87.3083 10.8943 87.3083 10.8943C87.3083 10.8943 85.6769 9.26293 79.1512 7.63142C73.3181 6.17309 66.1816 6.01836 64.7324 6.00195C63.2831 6.01836 56.1466 6.17309 50.3135 7.63142C43.7879 9.26293 42.1564 10.8943 42.1564 10.8943C42.1564 10.8943 33.9993 7.63142 27.4736 12.5257C20.9479 17.42 11.1594 35.3656 9.52798 41.8913C7.89655 48.417 10.3459 54.1671 12.7908 56.5741C15.2357 58.9811 17.6851 60.3526 20.9479 59.837L21.1073 59.8118C24.2379 59.3177 25.0603 59.1878 27.4736 56.5741C27.5515 71.0091 35.6307 80.3929 45.4193 84.3083C54.2645 87.8464 63.1096 87.6545 64.7323 87.5847C66.355 87.6545 75.2002 87.8464 84.0454 84.3083C93.834 80.3929 101.913 71.0091 101.991 56.5741C104.404 59.1878 105.227 59.3177 108.357 59.8118L108.517 59.837C111.78 60.3526 114.229 58.9811 116.674 56.5741C119.119 54.1671 121.568 48.417 119.937 41.8913C118.305 35.3656 108.517 17.42 101.991 12.5257Z" fill="white"/>
<path d="M101.991 56.5741C104.445 59.2316 105.254 59.3213 108.517 59.837C111.78 60.3526 114.229 58.9811 116.674 56.5741C119.119 54.1671 121.568 48.417 119.937 41.8913C118.305 35.3656 108.517 17.42 101.991 12.5257C95.4654 7.63142 87.3083 10.8943 87.3083 10.8943C87.3083 10.8943 85.6769 9.26293 79.1512 7.63142C72.6255 5.99991 64.4684 6 64.4684 6M101.991 56.5741C101.42 55.9552 100.36 51.6798 98.7282 46.7856C97.0968 41.8913 95.4654 33.7342 95.4654 33.7342M101.991 56.5741C101.913 71.0091 93.834 80.3929 84.0454 84.3083C74.2569 88.2237 64.4684 87.5711 64.4684 87.5711M27.4736 56.5741C25.0199 59.2316 24.2108 59.3213 20.9479 59.837C17.6851 60.3526 15.2357 58.9811 12.7908 56.5741C10.3459 54.1671 7.89655 48.417 9.52798 41.8913C11.1594 35.3656 20.9479 17.42 27.4736 12.5257C33.9993 7.63142 42.1564 10.8943 42.1564 10.8943C42.1564 10.8943 43.7879 9.26293 50.3135 7.63142C56.8392 5.99991 64.9963 6 64.9963 6M27.4736 56.5741C28.0451 55.9552 29.105 51.6798 30.7365 46.7856C32.3679 41.8913 33.9993 33.7342 33.9993 33.7342M27.4736 56.5741C27.5515 71.0091 35.6307 80.3929 45.4193 84.3083C55.2078 88.2237 64.9963 87.5711 64.9963 87.5711" stroke="#7D8793" stroke-width="1.5"/>
<circle cx="46.5227" cy="50.0484" r="4.89427" fill="#7D8793"/>
<circle cx="82.414" cy="50.0484" r="4.89427" fill="#7D8793"/>
<path d="M64.4681 54.0612C66.1235 54.0612 67.594 54.5651 68.6331 55.3445C69.6719 56.1236 70.2444 57.1433 70.2444 58.2058C70.2444 59.2681 69.6717 60.2871 68.6331 61.0661C67.594 61.8454 66.1235 62.3493 64.4681 62.3493C62.8128 62.3493 61.343 61.8454 60.304 61.0661C59.2653 60.2871 58.6928 59.2682 58.6927 58.2058C58.6927 57.1433 59.2652 56.1236 60.304 55.3445C61.343 54.5652 62.8128 54.0613 64.4681 54.0612Z" fill="#7D8793" stroke="#7D8793" stroke-width="1.5"/>
<path d="M70.9939 69.8913C70.9902 73.525 70.8362 79.414 64.4683 79.414C58.0971 79.414 57.9463 73.5188 57.9427 69.8856C58.9876 70.0259 60.1079 69.9913 61.2055 69.6255C63.7731 68.7696 64.3788 66.2495 64.4899 64.6033C64.4525 64.0484 64.4712 63.5928 64.4899 63.3336C64.5086 63.5928 64.5274 64.0484 64.4899 64.6033C64.601 66.2495 65.2067 68.7696 67.7744 69.6255C68.8568 69.9863 69.9614 70.0249 70.9939 69.8913Z" fill="#FFABCC"/>
<path d="M70.994 69.6255C70.994 73.2295 70.994 79.414 64.4683 79.414C57.9426 79.414 57.9426 73.2295 57.9426 69.6255M64.5115 63.0998C64.5115 63.0998 63.8417 68.3146 67.7744 69.6255C71.7071 70.9364 75.9315 67.9941 75.9315 67.9941M64.4683 63.0998C64.4683 63.0998 65.1381 68.3146 61.2055 69.6255C57.2728 70.9364 53.0483 67.9941 53.0483 67.9941" stroke="#7D8793" stroke-width="1.5"/>
</g>
<defs>
<clipPath id="clip0_52_174">
<rect width="130" height="130" fill="white"/>
</clipPath>
</defs>
</svg>