<svg width="60" height="60" viewBox="0 0 60 60" fill="none" xmlns="http://www.w3.org/2000/svg">
<circle cx="27" cy="20" r="1" fill="#7D8793"/>
<path d="M15.5 28C15.5 28 17.749 29.2683 19 29.5C19.96 29.6778 20.5538 29.7406 21.5 29.5C22.6035 29.2195 23.4908 28.5184 24 27.5C24.5 26.5 24.3756 25.1268 24 24C23.5 22.5 23.5858 22.7574 23 21C22.6095 19.8284 22.5 18 22.5 18" stroke="#7D8793" stroke-width="1.5" stroke-linecap="round"/>
<rect x="37.0607" y="43.0711" width="8.5" height="8.5" transform="rotate(-45 37.0607 43.0711)" stroke="#7D8793" stroke-width="1.5"/>
<mask id="path-4-inside-1_10_407" fill="white">
<path d="M46.0711 40.4142C46.8521 39.6332 48.1184 39.6332 48.8995 40.4142L58.0919 49.6066C60.435 51.9497 60.435 55.7487 58.0919 58.0919C55.7487 60.435 51.9497 60.435 49.6066 58.0919L40.4142 48.8995C39.6332 48.1184 39.6332 46.8521 40.4142 46.0711L46.0711 40.4142Z"/>
</mask>
<path d="M46.0711 40.4142C46.8521 39.6332 48.1184 39.6332 48.8995 40.4142L58.0919 49.6066C60.435 51.9497 60.435 55.7487 58.0919 58.0919C55.7487 60.435 51.9497 60.435 49.6066 58.0919L40.4142 48.8995C39.6332 48.1184 39.6332 46.8521 40.4142 46.0711L46.0711 40.4142Z" fill="#43C3F4"/>
<path d="M46.0711 40.4142L45.0104 39.3536V39.3536L46.0711 40.4142ZM48.8995 40.4142L49.9602 39.3536L49.9602 39.3536L48.8995 40.4142ZM40.4142 46.0711L39.3536 45.0104V45.0104L40.4142 46.0711ZM46.0711 40.4142L47.1317 41.4749C47.327 41.2796 47.6436 41.2796 47.8388 41.4749L48.8995 40.4142L49.9602 39.3536C48.5933 37.9867 46.3772 37.9867 45.0104 39.3536L46.0711 40.4142ZM48.8995 40.4142L47.8388 41.4749L57.0312 50.6673L58.0919 49.6066L59.1525 48.5459L49.9602 39.3536L48.8995 40.4142ZM58.0919 49.6066L57.0312 50.6673C58.7886 52.4246 58.7886 55.2739 57.0312 57.0312L58.0919 58.0919L59.1525 59.1525C62.0815 56.2236 62.0815 51.4749 59.1525 48.5459L58.0919 49.6066ZM58.0919 58.0919L57.0312 57.0312C55.2739 58.7886 52.4246 58.7886 50.6673 57.0312L49.6066 58.0919L48.5459 59.1525C51.4749 62.0815 56.2236 62.0815 59.1525 59.1525L58.0919 58.0919ZM49.6066 58.0919L50.6673 57.0312L41.4749 47.8388L40.4142 48.8995L39.3536 49.9602L48.5459 59.1525L49.6066 58.0919ZM40.4142 48.8995L41.4749 47.8388C41.2796 47.6436 41.2796 47.327 41.4749 47.1317L40.4142 46.0711L39.3536 45.0104C37.9867 46.3772 37.9867 48.5933 39.3536 49.9602L40.4142 48.8995ZM40.4142 46.0711L41.4749 47.1317L47.1317 41.4749L46.0711 40.4142L45.0104 39.3536L39.3536 45.0104L40.4142 46.0711Z" fill="#7D8793" mask="url(#path-4-inside-1_10_407)"/>
<circle cx="37.5" cy="20.5" r="2.5" fill="#7D8793"/>
<mask id="path-7-outside-2_10_407" maskUnits="userSpaceOnUse" x="3" y="3" width="42" height="41" fill="black">
<rect fill="white" x="3" y="3" width="42" height="41"/>
<path d="M24 5C34.4934 5 43 13.5066 43 24C42.9999 32.3581 37.6026 39.4547 30.1035 41.9971L27.7061 36.2852C27.4924 35.6348 27.3723 34.7275 27.3711 33.8506C27.3699 32.9385 27.4977 32.214 27.668 31.8799C28.0275 31.175 28.8432 30.7892 29.501 30.7891C30.4541 30.7891 32.1459 30.8689 33.7725 30.2393C35.1496 29.7061 36.054 29.2298 37.0742 28.0234C38.1529 26.7477 38.4639 25.7013 38.7393 24.1719C38.8458 23.5797 38.9443 22.8816 38.9658 22.2705C38.9765 21.9669 38.9689 21.6574 38.9248 21.3818C38.8859 21.1386 38.7974 20.7751 38.5312 20.5088C38.273 20.2507 37.9157 20.1078 37.6328 20.0166C37.3267 19.9179 36.9756 19.8408 36.6377 19.7725C35.9185 19.627 35.2556 19.5167 34.7588 19.335C34.2295 19.1413 33.894 18.9938 33.6025 18.8135C33.3157 18.636 33.0409 18.4083 32.6641 18.0215C31.917 17.2546 31.4412 16.6999 31.0703 16.249C30.7092 15.8101 30.4052 15.4146 30.0537 15.0322C29.5072 14.4379 29.037 14.0164 28.5107 13.6758C27.989 13.3381 27.4413 13.0988 26.7725 12.8398C25.1608 12.2159 24.0774 12.1994 22.458 12.291C21.3937 12.3512 20.5876 12.4914 19.8271 12.7617C19.0752 13.029 18.4029 13.4113 17.6074 13.9004C15.4381 15.2341 13.8611 17.6401 13.3291 18.7041C12.8498 19.6626 12.03 21.2607 11.7695 22.3682C11.6516 22.8696 11.5242 23.4546 11.4932 24.041C11.462 24.6312 11.5247 25.276 11.8311 25.8789C12.4629 27.122 13.5255 27.8199 14.416 28.292C14.3033 28.4638 14.177 28.6615 14.0361 28.8701C13.5496 29.5908 12.9429 30.4473 12.4277 31.0547C11.9179 31.6558 11.1906 32.384 10.5781 32.9727C10.2745 33.2644 10.0033 33.5173 9.80859 33.6973C9.71136 33.7871 9.63369 33.8594 9.58008 33.9082C9.55332 33.9326 9.53238 33.9514 9.51855 33.9639C9.5118 33.97 9.50632 33.9745 9.50293 33.9775L9.49805 33.9824L9.4834 33.9951L8.49414 34.9834C6.29345 31.8823 5.00006 28.0921 5 24C5 13.5066 13.5066 5 24 5Z"/>
</mask>
<path d="M24 5C34.4934 5 43 13.5066 43 24C42.9999 32.3581 37.6026 39.4547 30.1035 41.9971L27.7061 36.2852C27.4924 35.6348 27.3723 34.7275 27.3711 33.8506C27.3699 32.9385 27.4977 32.214 27.668 31.8799C28.0275 31.175 28.8432 30.7892 29.501 30.7891C30.4541 30.7891 32.1459 30.8689 33.7725 30.2393C35.1496 29.7061 36.054 29.2298 37.0742 28.0234C38.1529 26.7477 38.4639 25.7013 38.7393 24.1719C38.8458 23.5797 38.9443 22.8816 38.9658 22.2705C38.9765 21.9669 38.9689 21.6574 38.9248 21.3818C38.8859 21.1386 38.7974 20.7751 38.5312 20.5088C38.273 20.2507 37.9157 20.1078 37.6328 20.0166C37.3267 19.9179 36.9756 19.8408 36.6377 19.7725C35.9185 19.627 35.2556 19.5167 34.7588 19.335C34.2295 19.1413 33.894 18.9938 33.6025 18.8135C33.3157 18.636 33.0409 18.4083 32.6641 18.0215C31.917 17.2546 31.4412 16.6999 31.0703 16.249C30.7092 15.8101 30.4052 15.4146 30.0537 15.0322C29.5072 14.4379 29.037 14.0164 28.5107 13.6758C27.989 13.3381 27.4413 13.0988 26.7725 12.8398C25.1608 12.2159 24.0774 12.1994 22.458 12.291C21.3937 12.3512 20.5876 12.4914 19.8271 12.7617C19.0752 13.029 18.4029 13.4113 17.6074 13.9004C15.4381 15.2341 13.8611 17.6401 13.3291 18.7041C12.8498 19.6626 12.03 21.2607 11.7695 22.3682C11.6516 22.8696 11.5242 23.4546 11.4932 24.041C11.462 24.6312 11.5247 25.276 11.8311 25.8789C12.4629 27.122 13.5255 27.8199 14.416 28.292C14.3033 28.4638 14.177 28.6615 14.0361 28.8701C13.5496 29.5908 12.9429 30.4473 12.4277 31.0547C11.9179 31.6558 11.1906 32.384 10.5781 32.9727C10.2745 33.2644 10.0033 33.5173 9.80859 33.6973C9.71136 33.7871 9.63369 33.8594 9.58008 33.9082C9.55332 33.9326 9.53238 33.9514 9.51855 33.9639C9.5118 33.97 9.50632 33.9745 9.50293 33.9775L9.49805 33.9824L9.4834 33.9951L8.49414 34.9834C6.29345 31.8823 5.00006 28.0921 5 24C5 13.5066 13.5066 5 24 5Z" fill="#43C3F4"/>
<path d="M43 24L44.5 24V24H43ZM30.1035 41.9971L28.7204 42.5776L29.2614 43.8664L30.5851 43.4177L30.1035 41.9971ZM27.7061 36.2852L26.281 36.7533L26.2997 36.8103L26.3229 36.8657L27.7061 36.2852ZM27.3711 33.8506L25.8711 33.8525V33.8526L27.3711 33.8506ZM27.668 31.8799L26.3317 31.1984L26.3315 31.1989L27.668 31.8799ZM29.501 30.7891V29.2891H29.5007L29.501 30.7891ZM33.7725 30.2393L34.3139 31.6381L34.314 31.6381L33.7725 30.2393ZM37.0742 28.0234L38.2196 28.992L38.2196 28.992L37.0742 28.0234ZM38.7393 24.1719L40.2155 24.4376L40.2155 24.4376L38.7393 24.1719ZM38.9658 22.2705L40.4649 22.3233L40.4649 22.3233L38.9658 22.2705ZM38.9248 21.3818L40.406 21.145L40.406 21.1448L38.9248 21.3818ZM38.5312 20.5088L39.5921 19.4483L39.5915 19.4477L38.5312 20.5088ZM37.6328 20.0166L38.0931 18.589L38.093 18.5889L37.6328 20.0166ZM36.6377 19.7725L36.935 18.3022L36.935 18.3022L36.6377 19.7725ZM34.7588 19.335L34.2434 20.7436L34.2434 20.7437L34.7588 19.335ZM33.6025 18.8135L32.8133 20.0891L32.8134 20.0891L33.6025 18.8135ZM32.6641 18.0215L31.5896 19.0682L31.5896 19.0682L32.6641 18.0215ZM31.0703 16.249L29.9119 17.202L29.9119 17.202L31.0703 16.249ZM30.0537 15.0322L31.158 14.0171L31.1579 14.017L30.0537 15.0322ZM28.5107 13.6758L29.3258 12.4165L29.3257 12.4165L28.5107 13.6758ZM26.7725 12.8398L27.314 11.441L27.314 11.441L26.7725 12.8398ZM22.458 12.291L22.3733 10.7934L22.3733 10.7934L22.458 12.291ZM19.8271 12.7617L19.3248 11.3483L19.3248 11.3484L19.8271 12.7617ZM17.6074 13.9004L16.8218 12.6226L16.8218 12.6226L17.6074 13.9004ZM13.3291 18.7041L14.6707 19.3749L14.6707 19.3749L13.3291 18.7041ZM11.7695 22.3682L10.3094 22.0248L10.3094 22.0248L11.7695 22.3682ZM11.4932 24.041L9.99526 23.9617L9.99526 23.9618L11.4932 24.041ZM11.8311 25.8789L10.4937 26.5583L10.4939 26.5586L11.8311 25.8789ZM14.416 28.292L15.6703 29.1146L16.5732 27.7379L15.1186 26.9667L14.416 28.292ZM14.0361 28.8701L15.2794 29.7094L15.2794 29.7094L14.0361 28.8701ZM12.4277 31.0547L13.5717 32.025L13.5717 32.0249L12.4277 31.0547ZM10.5781 32.9727L11.6175 34.0542L11.6175 34.0542L10.5781 32.9727ZM9.80859 33.6973L10.8266 34.7989L10.8266 34.7989L9.80859 33.6973ZM9.58008 33.9082L10.5903 35.017L10.5903 35.017L9.58008 33.9082ZM9.51855 33.9639L10.5249 35.0762L10.5254 35.0758L9.51855 33.9639ZM9.50293 33.9775L8.49773 32.8642L8.46933 32.8898L8.44227 32.9169L9.50293 33.9775ZM9.49805 33.9824L10.4804 35.116L10.5209 35.0809L10.5587 35.0431L9.49805 33.9824ZM9.4834 33.9951L8.501 32.8616L8.46085 32.8964L8.42326 32.9339L9.4834 33.9951ZM8.49414 34.9834L7.27086 35.8515L8.2983 37.2993L9.55428 36.0446L8.49414 34.9834ZM5 24H3.5V24L5 24ZM24 5V6.5C33.665 6.5 41.5 14.335 41.5 24H43H44.5C44.5 12.6782 35.3218 3.5 24 3.5V5ZM43 24L41.5 24C41.4999 31.6958 36.5309 38.2342 29.6219 40.5765L30.1035 41.9971L30.5851 43.4177C38.6743 40.6752 44.4999 33.0204 44.5 24L43 24ZM30.1035 41.9971L31.4866 41.4165L29.0892 35.7046L27.7061 36.2852L26.3229 36.8657L28.7204 42.5776L30.1035 41.9971ZM27.7061 36.2852L29.1311 35.817C28.981 35.3598 28.8721 34.6194 28.8711 33.8486L27.3711 33.8506L25.8711 33.8526C25.8724 34.8356 26.0039 35.9098 26.281 36.7533L27.7061 36.2852ZM27.3711 33.8506L28.8711 33.8487C28.8706 33.4595 28.8979 33.13 28.937 32.882C28.9807 32.6042 29.0249 32.5207 29.0045 32.5609L27.668 31.8799L26.3315 31.1989C26.1408 31.5731 26.0359 32.0189 25.9735 32.415C25.9065 32.8407 25.8704 33.3296 25.8711 33.8525L27.3711 33.8506ZM27.668 31.8799L29.0042 32.5614C29.0253 32.52 29.0825 32.4475 29.203 32.3804C29.3286 32.3103 29.4475 32.2891 29.5013 32.2891L29.501 30.7891L29.5007 29.2891C28.3788 29.2893 26.9897 29.9082 26.3317 31.1984L27.668 31.8799ZM29.501 30.7891V32.2891C30.3629 32.2891 32.3709 32.3902 34.3139 31.6381L33.7725 30.2393L33.231 28.8404C31.9208 29.3475 30.5453 29.2891 29.501 29.2891V30.7891ZM33.7725 30.2393L34.314 31.6381C35.8202 31.055 36.9775 30.4608 38.2196 28.992L37.0742 28.0234L35.9289 27.0548C35.1306 27.9988 34.479 28.3573 33.231 28.8404L33.7725 30.2393ZM37.0742 28.0234L38.2196 28.992C39.536 27.4351 39.9165 26.099 40.2155 24.4376L38.7393 24.1719L37.263 23.9061C37.0114 25.3036 36.7699 26.0602 35.9288 27.0549L37.0742 28.0234ZM38.7393 24.1719L40.2155 24.4376C40.3277 23.8144 40.4397 23.037 40.4649 22.3233L38.9658 22.2705L37.4668 22.2177C37.4488 22.7262 37.364 23.345 37.263 23.9062L38.7393 24.1719ZM38.9658 22.2705L40.4649 22.3233C40.4773 21.9698 40.4713 21.5537 40.406 21.145L38.9248 21.3818L37.4436 21.6187C37.4664 21.7612 37.4757 21.964 37.4667 22.2177L38.9658 22.2705ZM38.9248 21.3818L40.406 21.1448C40.3555 20.8297 40.2073 20.0638 39.5921 19.4483L38.5312 20.5088L37.4704 21.5693C37.4453 21.5441 37.4299 21.5222 37.4219 21.5092C37.4143 21.4968 37.4131 21.4921 37.4157 21.4987C37.4182 21.5053 37.4229 21.5188 37.4282 21.5405C37.4336 21.5621 37.4387 21.5876 37.4437 21.6189L38.9248 21.3818ZM38.5312 20.5088L39.5915 19.4477C39.0679 18.9246 38.4193 18.6941 38.0931 18.589L37.6328 20.0166L37.1726 21.4442C37.2756 21.4775 37.3543 21.5083 37.4143 21.5387C37.4755 21.5696 37.4855 21.5844 37.471 21.5699L38.5312 20.5088ZM37.6328 20.0166L38.093 18.5889C37.7004 18.4624 37.278 18.3716 36.935 18.3022L36.6377 19.7725L36.3404 21.2427C36.6732 21.31 36.953 21.3735 37.1727 21.4443L37.6328 20.0166ZM36.6377 19.7725L36.935 18.3022C36.1152 18.1364 35.6308 18.0567 35.2741 17.9263L34.7588 19.335L34.2434 20.7437C34.8805 20.9767 35.7218 21.1176 36.3404 21.2427L36.6377 19.7725ZM34.7588 19.335L35.2742 17.9263C34.7736 17.7431 34.552 17.637 34.3917 17.5378L33.6025 18.8135L32.8134 20.0891C33.2361 20.3506 33.6855 20.5395 34.2434 20.7436L34.7588 19.335ZM33.6025 18.8135L34.3917 17.5379C34.2442 17.4466 34.0648 17.3097 33.7385 16.9748L32.6641 18.0215L31.5896 19.0682C32.017 19.5069 32.3872 19.8255 32.8133 20.0891L33.6025 18.8135ZM32.6641 18.0215L33.7385 16.9748C33.0254 16.2427 32.5776 15.7201 32.2287 15.2961L31.0703 16.249L29.9119 17.202C30.3049 17.6796 30.8086 18.2664 31.5896 19.0682L32.6641 18.0215ZM31.0703 16.249L32.2287 15.2961C31.908 14.9062 31.5466 14.4398 31.158 14.0171L30.0537 15.0322L28.9494 16.0474C29.2638 16.3894 29.5104 16.7139 29.9119 17.202L31.0703 16.249ZM30.0537 15.0322L31.1579 14.017C30.5592 13.3658 29.9931 12.8484 29.3258 12.4165L28.5107 13.6758L27.6957 14.935C28.0809 15.1843 28.4553 15.5099 28.9495 16.0475L30.0537 15.0322ZM28.5107 13.6758L29.3257 12.4165C28.672 11.9934 28.0087 11.71 27.314 11.441L26.7725 12.8398L26.2309 14.2387C26.8738 14.4876 27.3059 14.6828 27.6958 14.9351L28.5107 13.6758ZM26.7725 12.8398L27.314 11.441C25.4156 10.7061 24.0869 10.6965 22.3733 10.7934L22.458 12.291L22.5427 13.7886C24.0678 13.7024 24.9059 13.7258 26.2309 14.2387L26.7725 12.8398ZM22.458 12.291L22.3733 10.7934C21.2168 10.8588 20.2601 11.0159 19.3248 11.3483L19.8271 12.7617L20.3295 14.1751C20.915 13.967 21.5706 13.8436 22.5427 13.7886L22.458 12.291ZM19.8271 12.7617L19.3248 11.3484C18.4152 11.6717 17.6304 12.1255 16.8218 12.6226L17.6074 13.9004L18.393 15.1782C19.1755 14.6971 19.7352 14.3863 20.3295 14.1751L19.8271 12.7617ZM17.6074 13.9004L16.8218 12.6226C14.3198 14.1609 12.5835 16.8412 11.9875 18.0333L13.3291 18.7041L14.6707 19.3749C15.1387 18.439 16.5564 16.3074 18.3931 15.1782L17.6074 13.9004ZM13.3291 18.7041L11.9875 18.0333C11.5488 18.9107 10.6203 20.7026 10.3094 22.0248L11.7695 22.3682L13.2297 22.7115C13.4396 21.8188 14.1509 20.4146 14.6707 19.3749L13.3291 18.7041ZM11.7695 22.3682L10.3094 22.0248C10.1903 22.5311 10.034 23.2298 9.99526 23.9617L11.4932 24.041L12.9911 24.1204C13.0144 23.6793 13.1129 23.2081 13.2297 22.7115L11.7695 22.3682ZM11.4932 24.041L9.99526 23.9618C9.95596 24.7051 10.0269 25.6394 10.4937 26.5583L11.8311 25.8789L13.1684 25.1995C13.0226 24.9125 12.968 24.5574 12.9911 24.1202L11.4932 24.041ZM11.8311 25.8789L10.4939 26.5586C11.3375 28.2184 12.7351 29.0986 13.7134 29.6173L14.416 28.292L15.1186 26.9667C14.3159 26.5412 13.5883 26.0256 13.1682 25.1992L11.8311 25.8789ZM14.416 28.292L13.1617 27.4694C13.0362 27.6607 12.9267 27.8326 12.7929 28.0309L14.0361 28.8701L15.2794 29.7094C15.4272 29.4903 15.5704 29.267 15.6703 29.1146L14.416 28.292ZM14.0361 28.8701L12.7929 28.0309C12.312 28.7432 11.7431 29.5429 11.2838 30.0845L12.4277 31.0547L13.5717 32.0249C14.1427 31.3516 14.7872 30.4384 15.2794 29.7094L14.0361 28.8701ZM12.4277 31.0547L11.2838 30.0844C10.8259 30.6243 10.1447 31.3088 9.53873 31.8911L10.5781 32.9727L11.6175 34.0542C12.2366 33.4592 13.0098 32.6873 13.5717 32.025L12.4277 31.0547ZM10.5781 32.9727L9.53874 31.8911C9.24441 32.174 8.98078 32.4198 8.79057 32.5956L9.80859 33.6973L10.8266 34.7989C11.0259 34.6148 11.3047 34.3548 11.6175 34.0542L10.5781 32.9727ZM9.80859 33.6973L8.79058 32.5956C8.6869 32.6914 8.61829 32.7553 8.56985 32.7994L9.58008 33.9082L10.5903 35.017C10.6491 34.9635 10.7358 34.8828 10.8266 34.7989L9.80859 33.6973ZM9.58008 33.9082L8.56986 32.7994C8.55884 32.8094 8.54878 32.8185 8.53943 32.827C8.53173 32.8339 8.51966 32.8448 8.51174 32.852L9.51855 33.9639L10.5254 35.0758C10.531 35.0707 10.5625 35.0423 10.5903 35.017L9.58008 33.9082ZM9.51855 33.9639L8.5122 32.8516C8.52244 32.8423 8.53025 32.8356 8.53077 32.8351C8.53082 32.8351 8.5308 32.8351 8.5306 32.8353C8.53049 32.8354 8.53039 32.8355 8.53022 32.8356C8.53006 32.8357 8.52985 32.8359 8.52962 32.8361C8.52883 32.8368 8.52693 32.8384 8.52472 32.8403C8.52248 32.8423 8.51896 32.8453 8.51476 32.849C8.51059 32.8527 8.50469 32.8579 8.49773 32.8642L9.50293 33.9775L10.5081 35.0909C10.502 35.0964 10.497 35.1008 10.4938 35.1036C10.4906 35.1065 10.4881 35.1086 10.487 35.1096C10.4859 35.1106 10.4851 35.1112 10.4856 35.1108C10.486 35.1104 10.4857 35.1107 10.4864 35.1101C10.4869 35.1097 10.4875 35.1092 10.4882 35.1086C10.494 35.1036 10.5079 35.0916 10.5249 35.0762L9.51855 33.9639ZM9.50293 33.9775L8.44227 32.9169L8.43739 32.9218L9.49805 33.9824L10.5587 35.0431L10.5636 35.0382L9.50293 33.9775ZM9.49805 33.9824L8.51565 32.8489L8.501 32.8616L9.4834 33.9951L10.4658 35.1287L10.4804 35.116L9.49805 33.9824ZM9.4834 33.9951L8.42326 32.9339L7.434 33.9222L8.49414 34.9834L9.55428 36.0446L10.5435 35.0563L9.4834 33.9951ZM8.49414 34.9834L9.71742 34.1153C7.69088 31.2596 6.50005 27.7711 6.5 24L5 24L3.5 24C3.50006 28.4132 4.89602 32.505 7.27086 35.8515L8.49414 34.9834ZM5 24H6.5C6.5 14.335 14.335 6.5 24 6.5V5V3.5C12.6782 3.5 3.5 12.6782 3.5 24H5Z" fill="#7D8793" mask="url(#path-7-outside-2_10_407)"/>
<mask id="path-9-inside-3_10_407" fill="white">
<path d="M24 0C37.2548 0 48 10.7452 48 24C48 37.2548 37.2548 48 24 48C10.7452 48 0 37.2548 0 24C0 10.7452 10.7452 0 24 0ZM24 6.5C14.335 6.5 6.5 14.335 6.5 24C6.5 33.665 14.335 41.5 24 41.5C33.665 41.5 41.5 33.665 41.5 24C41.5 14.335 33.665 6.5 24 6.5Z"/>
</mask>
<path d="M24 0C37.2548 0 48 10.7452 48 24C48 37.2548 37.2548 48 24 48C10.7452 48 0 37.2548 0 24C0 10.7452 10.7452 0 24 0ZM24 6.5C14.335 6.5 6.5 14.335 6.5 24C6.5 33.665 14.335 41.5 24 41.5C33.665 41.5 41.5 33.665 41.5 24C41.5 14.335 33.665 6.5 24 6.5Z" fill="white"/>
<path d="M24 0V1.5C36.4264 1.5 46.5 11.5736 46.5 24H48H49.5C49.5 9.91674 38.0833 -1.5 24 -1.5V0ZM48 24H46.5C46.5 36.4264 36.4264 46.5 24 46.5V48V49.5C38.0833 49.5 49.5 38.0833 49.5 24H48ZM24 48V46.5C11.5736 46.5 1.5 36.4264 1.5 24H0H-1.5C-1.5 38.0833 9.91674 49.5 24 49.5V48ZM0 24H1.5C1.5 11.5736 11.5736 1.5 24 1.5V0V-1.5C9.91674 -1.5 -1.5 9.91674 -1.5 24H0ZM24 6.5V5C13.5066 5 5 13.5066 5 24H6.5H8C8 15.1634 15.1634 8 24 8V6.5ZM6.5 24H5C5 34.4934 13.5066 43 24 43V41.5V40C15.1634 40 8 32.8366 8 24H6.5ZM24 41.5V43C34.4934 43 43 34.4934 43 24H41.5H40C40 32.8366 32.8366 40 24 40V41.5ZM41.5 24H43C43 13.5066 34.4934 5 24 5V6.5V8C32.8366 8 40 15.1634 40 24H41.5Z" fill="#7D8793" mask="url(#path-9-inside-3_10_407)"/>
</svg>
