<svg width="140" height="120" viewBox="0 0 140 120" fill="none" xmlns="http://www.w3.org/2000/svg">
<g id="Frame 53">
<g id="Group 18">
<g id="Vector 15">
<path d="M94 92.9999C94 92.9999 98.4999 90.9998 101 88.5C102.5 87.0002 104.856 84.7137 107 86C109.5 87.5 108.5 93 106.5 95C104.438 97.0618 103.072 96.7537 102.644 96.5737C103.02 96.7808 104 97.4246 104 98.5C104 99.5 103 100.5 101.5 100.5C99.5 100.5 95 98.5 95 98.5L94 92.9999Z" fill="white"/>
<path d="M94 92.9999C94 92.9999 98.4999 90.9998 101 88.5C102.5 87.0002 104.856 84.7137 107 86C109.5 87.5 108.5 93 106.5 95C103.98 97.5196 102.5 96.5 102.5 96.5C102.5 96.5 104 97.1698 104 98.5C104 99.5 103 100.5 101.5 100.5C99.5 100.5 95 98.5 95 98.5L94 92.9999Z" stroke="#7D8793" stroke-width="1.5"/>
</g>
<path id="ring-back" opacity="0.3" d="M105.49 73.5419C105.027 70.5004 88.5219 70.5966 68.625 73.7566C48.7281 76.9166 32.974 81.9438 33.4372 84.9853" stroke="#7D8793" stroke-width="0.5"/>
<g id="Group 17">
<path id="Vector" d="M39.5 106.932C40.3333 104.577 47 88.5637 47 88.5637H93C93 88.5637 99.6667 104.577 100.5 106.932C101.333 109.287 101.922 110.996 101.5 112.584C100.955 114.635 97.5 114.468 97.5 114.468L70 105.519L42.5 114.468C42.5 114.468 39.0445 114.635 38.5 112.584C38.0785 110.996 38.6667 109.287 39.5 106.932Z" fill="white" stroke="#7D8793" stroke-width="1.5"/>
<path id="Vector_2" d="M41 114.03C41 109.492 42.2612 104.349 43.5 97.9833C45.417 88.1335 48.4801 78.5893 50.0222 68.6532L70 65.25L89.9778 68.6532C91.5199 78.5893 94.583 88.1335 96.5 97.9833C97.7388 104.349 99 109.492 99 114.03C99 116.866 97.7111 118 95.7778 118C93.0555 118 92.5556 115.731 90.6222 114.597C88.6889 113.462 84.3852 113.275 80.3111 112.895C76.237 112.515 70 112.649 70 112.649C70 112.649 63.763 112.515 59.6889 112.895C55.6148 113.275 51.3111 113.462 49.3778 114.597C47.4444 115.731 46.9445 118 44.2222 118C42.2889 118 41 116.866 41 114.03Z" fill="white" stroke="#7D8793" stroke-width="1.5"/>
</g>
<path id="Vector_3" d="M22.8354 51.0881C19.9241 53.4665 17.8861 54.0608 15.557 54.0608C7.19579 54.0608 1 47.7341 1 39.196C1 30.658 7.40506 26.1149 12.0633 24.9257C21.3215 22.5622 26.7514 21.9172 35.6456 18.3851C46.1266 14.223 57.1899 11.25 70 11.25C82.8101 11.25 93.8734 14.223 104.354 18.3851C113.249 21.9172 118.679 22.5622 127.937 24.9257C132.595 26.1149 139 30.658 139 39.196C139 47.7341 132.804 54.0608 124.443 54.0608C122.114 54.0608 120.076 53.4665 117.165 51.0881C114.557 48.9579 111.482 44.9198 110.869 44.1002C112.037 45.7144 115.754 52.0944 114.253 58.223C112.702 64.5589 106.315 68.304 101.443 68.9259C96.7848 69.5205 86.3038 69.5205 86.3038 69.5205L70 68.9257L53.6962 69.5205C53.6962 69.5205 43.2152 69.5205 38.557 68.9259C33.6846 68.304 27.298 64.5589 25.7468 58.223C24.2464 52.0944 27.9631 45.7144 29.131 44.1002C28.5177 44.9198 25.443 48.9579 22.8354 51.0881Z" fill="white" stroke="#7D8793" stroke-width="1.5"/>
<path id="Vector_4" d="M38.0678 59.0509C38.0678 59.0509 37.4855 56.6726 39.2324 54.8888C40.3969 53.6996 42.1438 53.105 43.8906 53.6995C45.8907 54.3803 47.3843 56.6726 46.802 59.0509C46.3554 60.8751 45.0552 61.9703 43.8906 62.0239C42.7261 62.0775 40.9792 61.5258 40.9792 59.6455C40.9792 58.4563 41.9073 56.078 43.3083 56.078C44.4729 56.078 44.4729 57.8617 44.4729 57.8617" stroke="#FFABCC" stroke-linecap="round"/>
<path id="Ellipse 17" d="M48.1836 53.1037C49.546 52.7309 50.8191 53.4678 51.1166 54.6013C51.4141 55.7349 50.6724 57.0231 49.3099 57.3959C47.9474 57.7686 46.6743 57.0318 46.3768 55.8982C46.0794 54.7646 46.8212 53.4765 48.1836 53.1037Z" stroke="#7D8793" stroke-width="1.5"/>
<line id="Line 13" opacity="0.5" x1="0.75" y1="-0.75" x2="1.60388" y2="-0.75" transform="matrix(-0.699668 -0.714468 0.699668 -0.714468 58.084 47.2441)" stroke="#7D8793" stroke-width="1.5" stroke-linecap="round"/>
<path id="Vector_5" d="M101.932 59.0509C101.932 59.0509 102.514 56.6726 100.768 54.8888C99.6031 53.6996 97.8562 53.105 96.1094 53.6995C94.1093 54.3803 92.6157 56.6726 93.198 59.0509C93.6446 60.8751 94.9448 61.9703 96.1094 62.0239C97.2739 62.0775 99.0208 61.5258 99.0208 59.6455C99.0208 58.4563 98.0927 56.078 96.6917 56.078C95.5271 56.078 95.5271 57.8617 95.5271 57.8617" stroke="#FFABCC" stroke-linecap="round"/>
<path id="Ellipse 17_2" d="M91.8164 53.1037C90.454 52.7309 89.1809 53.4678 88.8834 54.6013C88.5859 55.7349 89.3276 57.0231 90.6901 57.3959C92.0526 57.7686 93.3257 57.0318 93.6232 55.8982C93.9206 54.7646 93.1788 53.4765 91.8164 53.1037Z" stroke="#7D8793" stroke-width="1.5"/>
<line id="Line 13_2" opacity="0.5" x1="0.75" y1="-0.75" x2="1.60388" y2="-0.75" transform="matrix(0.699668 -0.714468 -0.699668 -0.714468 81.916 47.2441)" stroke="#7D8793" stroke-width="1.5" stroke-linecap="round"/>
<g id="Vector_6">
<path fill-rule="evenodd" clip-rule="evenodd" d="M68.3896 60.1555C68.3896 60.8122 68.5443 62.3852 69.9949 62.3852C71.4454 62.3852 71.6052 60.8122 71.6052 60.1555C70.9487 60.1555 70.408 59.8378 69.9949 59.4122C69.5818 59.8378 69.0461 60.1555 68.3896 60.1555Z" fill="#FFABCC"/>
<path d="M68.3896 60.1555C68.3896 60.8122 68.5443 62.3852 69.9949 62.3852C71.4454 62.3852 71.6052 60.8122 71.6052 60.1555M68.3896 60.1555C69.0461 60.1555 69.5818 59.8378 69.9949 59.4122C70.408 59.8378 70.9487 60.1555 71.6052 60.1555M68.3896 60.1555H67.962M71.6052 60.1555C71.6052 60.8122 71.4506 62.3852 70 62.3852M71.6052 60.1555H72.0329M71.6052 60.1555C70.9487 60.1555 70.4131 59.8378 70 59.4122" stroke="#7D8793" stroke-linecap="round"/>
</g>
<path id="Star 5" d="M69.7944 77.6741C69.8938 77.5306 70.1061 77.5306 70.2055 77.6741L72.1127 80.4241C72.3329 80.7417 72.6517 80.9778 73.02 81.095L76.2016 82.1067C76.3643 82.1584 76.4291 82.3545 76.3286 82.4924L74.3198 85.2434C74.0969 85.5488 73.9783 85.9181 73.9829 86.2961L74.0249 89.7073C74.0267 89.8801 73.8562 90.0029 73.6928 89.9465L70.5717 88.8674C70.2013 88.7393 69.7986 88.7393 69.4282 88.8674L66.3071 89.9465C66.1437 90.0029 65.9732 89.8801 65.9751 89.7073L66.017 86.2961C66.0216 85.9181 65.903 85.5488 65.6801 85.2434L63.6713 82.4924C63.5708 82.3545 63.6356 82.1584 63.7983 82.1067L66.9799 81.095C67.3482 80.9778 67.667 80.7417 67.8872 80.4241L69.7944 77.6741Z" fill="#F3D6BD" stroke="#7D8793" stroke-width="1.5"/>
<path id="ring-front" opacity="0.3" d="M105.49 73.5419C105.954 76.5834 90.1995 81.6107 70.3026 84.7707C50.4057 87.9307 33.9005 88.0268 33.4373 84.9854" stroke="#7D8793" stroke-width="0.5"/>
</g>
<g id="jupiter">
<circle id="jupiter_2" cx="49.5" cy="87" r="5.95833" fill="#FDEADF"/>
<g id="Vector_7">
<path d="M54.375 89.7084C56 87 54.9167 83.2084 52.2083 81.5834C52.2083 81.5834 51.125 82.2351 50.0417 83.7501C48.9583 85.2651 48.4167 86.4584 46.7917 88.0834L44.625 90.2501L46.25 91.8751C46.25 91.8751 48.3855 90.1152 50.0417 89.7084C51.4797 89.3552 54.375 89.7084 54.375 89.7084Z" fill="#B29686"/>
<path d="M52.75 85.9168C52.75 86.5151 52.265 87.0001 51.6667 87.0001C51.0684 87.0001 50.5833 86.5151 50.5833 85.9168C50.5833 85.3184 51.0684 84.8334 51.6667 84.8334C52.265 84.8334 52.75 85.3184 52.75 85.9168Z" fill="#B29686"/>
<path d="M52.75 85.9168C52.75 86.5151 52.265 87.0001 51.6667 87.0001C51.0684 87.0001 50.5833 86.5151 50.5833 85.9168C50.5833 85.3184 51.0684 84.8334 51.6667 84.8334C52.265 84.8334 52.75 85.3184 52.75 85.9168Z" fill="#FDEADF"/>
</g>
<path id="Vector_8" d="M46.25 92.032C48.9583 93.1153 52.2083 93.657 54.375 89.8653C54.375 89.8653 51.4797 89.5122 50.0417 89.8653C48.3855 90.2721 46.25 92.032 46.25 92.032Z" fill="#695B5A"/>
<circle id="jupiter_3" cx="49.5" cy="87" r="5.75" stroke="#7D8793" stroke-width="1.5"/>
<path id="Vector 14" d="M52.2083 81.5834C52.2083 81.5834 51.125 82.2351 50.0417 83.75C48.9583 85.265 48.4167 86.4584 46.7917 88.0834C45.1667 89.7084 44.625 90.25 44.625 90.25M46.25 91.875C46.25 91.875 48.3855 90.1152 50.0417 89.7084C51.4797 89.3552 54.375 89.7084 54.375 89.7084" stroke="#7D8793"/>
<circle id="Ellipse 20" cx="51.6667" cy="85.9167" r="1.08333" stroke="#7D8793"/>
</g>
</g>
</svg>
